<svg width="294" height="144" viewBox="0 0 294 144" fill="none" xmlns="http://www.w3.org/2000/svg">
<g clip-path="url(#clip0)">
<path opacity="0.18" d="M16.821 117.713C11.9803 113.972 7.98735 109.247 5.10525 103.85C2.22315 98.4529 0.517329 92.5066 0.100172 86.4026C-0.316985 80.2987 0.563993 74.1756 2.68506 68.4368C4.80613 62.698 8.11914 57.4738 12.4058 53.1083C18.8152 46.643 27.0999 42.4866 34.209 36.8889C46.503 27.2678 55.6063 13.3714 69.3208 6.02441C85.8341 -2.82701 105.846 -0.489952 123.983 3.92526C142.119 8.34047 160.34 14.6659 178.938 13.0706C190.015 12.1119 200.679 8.36147 211.65 6.53521C222.622 4.70895 234.657 5.03781 243.837 11.4332C257.202 20.8024 260.378 39.7368 271.343 51.9468C276.654 57.8664 283.707 62.0787 288.409 68.5161C295.973 78.8649 295.777 94.4056 287.954 104.559C277.934 117.538 259.854 119.595 245.272 126.733C237.155 130.707 229.878 136.438 221.481 139.768C203.834 146.765 183.983 142.21 165.889 136.557C147.794 130.903 129.154 124.102 110.422 126.872C92.9292 129.475 77.1646 140.272 59.5247 141.909C51.3381 142.672 41.9898 141.21 36.9869 134.143C31.606 126.565 24.1051 123.311 16.821 117.713Z" fill="#5EFCE8"/>
<path d="M21.5653 77.6126C26.3164 72.3297 26.3164 72.3297 31.7042 65.9903L54.6339 39.1562C59.7069 33.3415 61.715 30.7036 64.43 26.5613H86.1212C85.501 32.385 85.2183 38.2398 85.2745 44.0962V78.4593H88.3393C91.8535 78.4263 95.361 78.1434 98.835 77.6126V96.8408C95.3993 96.4188 91.9408 96.2085 88.4792 96.2111H85.3095V101.494C85.2083 105.842 85.4916 110.19 86.1562 114.488H64.353C64.9529 110.113 65.2358 105.7 65.1996 101.284V96.1061H35.3007C28.4295 96.1061 25.5047 96.2111 21.5653 96.5259V77.6126ZM65.3046 66.4171C65.3046 61.6591 65.5145 55.8514 65.9413 51.1983C63.8422 54.1581 62.2398 56.2713 59.392 59.8608L43.9632 78.6692H65.3046V66.4171Z" fill="#5EFCE8"/>
<path d="M21.5653 77.6126C26.3164 72.3297 26.3164 72.3297 31.7042 65.9903L54.6339 39.1562C59.7069 33.3415 61.715 30.7036 64.43 26.5613H86.1212C85.501 32.385 85.2183 38.2398 85.2745 44.0962V78.4593H88.3393C91.8535 78.4263 95.361 78.1434 98.835 77.6126V96.8408C95.3993 96.4188 91.9408 96.2085 88.4792 96.2111H85.3095V101.494C85.2083 105.842 85.4916 110.19 86.1562 114.488H64.353C64.9529 110.113 65.2358 105.7 65.1996 101.284V96.1061H35.3007C28.4295 96.1061 25.5047 96.2111 21.5653 96.5259V77.6126ZM65.3046 66.4171C65.3046 61.6591 65.5145 55.8514 65.9413 51.1983C63.8422 54.1581 62.2398 56.2713 59.392 59.8608L43.9632 78.6692H65.3046V66.4171Z" fill="url(#paint0_linear)"/>
<path d="M139.146 51.1142C141.245 51.4641 143.197 52.7516 145.303 53.2134C147.143 53.6332 149.082 53.4163 150.901 54.06C154.295 55.2635 156.499 59.3569 156.981 63.4642C157.464 67.5716 156.604 71.7279 155.624 75.7162C153.049 86.226 149.55 96.7217 143.253 104.692C142.812 105.244 142.28 105.825 141.63 105.811C141.178 105.749 140.756 105.551 140.419 105.244C139.097 104.339 137.887 103.28 136.816 102.089C135.136 100.066 134.164 97.4005 133.317 94.7555C130.931 87.3106 126.376 82.5945 125.529 74.7017C124.606 66.424 129.133 49.4629 139.146 51.1142Z" fill="#5EFCE8"/>
<path d="M132.372 56.4182C131.479 56.2569 130.557 56.4234 129.777 56.887C128.958 57.3906 128.25 58.0564 127.698 58.8433C127.146 59.6302 126.76 60.5218 126.565 61.4632C126.186 63.3497 126.117 65.2853 126.362 67.1939C126.841 72.7948 127.927 78.3271 129.602 83.6932C130.091 85.2466 128.692 88.9341 129.707 90.2075C130.532 91.2431 130.119 97.4636 131.197 98.2333C134.185 100.388 140.391 99.1989 143.379 101.354C147.248 104.153 146.99 96.7639 146.374 93.7201C145.674 90.3265 140.419 90.9213 136.396 79.4599C131.043 64.2061 133.744 56.7331 132.372 56.4182Z" fill="url(#paint1_linear)"/>
<path d="M184.704 77.2209C189.455 71.938 189.455 71.938 194.843 65.5986L217.773 38.7574C221.352 34.8125 224.626 30.6022 227.569 26.1625H249.26C248.64 31.9886 248.357 37.8457 248.413 43.7044V78.0465H251.478C254.981 78.0085 258.476 77.7256 261.939 77.1999V96.4281C258.504 96.0002 255.045 95.7875 251.583 95.7913H248.413V101.074C248.312 105.422 248.595 109.77 249.26 114.068H227.492C228.089 109.711 228.372 105.317 228.339 100.92V95.7424H198.44C191.568 95.7424 188.609 95.8473 184.704 96.1692V77.2209ZM228.444 66.0254C228.444 61.2673 228.653 55.4597 229.073 50.8136C226.974 53.7664 225.379 55.8795 222.524 59.476L207.13 78.2844H228.472L228.444 66.0254Z" fill="#5EFCE8"/>
<path d="M184.704 77.2209C189.455 71.938 189.455 71.938 194.843 65.5986L217.773 38.7574C221.352 34.8125 224.626 30.6022 227.569 26.1625H249.26C248.64 31.9886 248.357 37.8457 248.413 43.7044V78.0465H251.478C254.981 78.0085 258.476 77.7256 261.939 77.1999V96.4281C258.504 96.0002 255.045 95.7875 251.583 95.7913H248.413V101.074C248.312 105.422 248.595 109.77 249.26 114.068H227.492C228.089 109.711 228.372 105.317 228.339 100.92V95.7424H198.44C191.568 95.7424 188.609 95.8473 184.704 96.1692V77.2209ZM228.444 66.0254C228.444 61.2673 228.653 55.4597 229.073 50.8136C226.974 53.7664 225.379 55.8795 222.524 59.476L207.13 78.2844H228.472L228.444 66.0254Z" fill="url(#paint2_linear)"/>
<path d="M116.335 105.776C112.966 102.455 110.342 98.4553 108.638 94.042C105.854 86.2812 104.459 78.0906 104.517 69.8458C104.517 58.7553 107.162 47.238 111.178 40.5837C117.622 29.801 128.608 23.8884 141.923 23.8884C152.174 23.8884 161.152 27.387 167.596 33.6845C170.965 37.0028 173.589 41.0005 175.293 45.4117C178.083 53.2072 179.475 61.4336 179.407 69.7129C179.407 80.8104 176.769 92.4327 172.753 99.101C166.414 109.681 155.323 115.614 141.902 115.614C131.547 115.614 122.779 112.214 116.335 105.776ZM126.131 69.0062C126.131 87.8985 131.519 97.6386 141.979 97.6386C152.44 97.6386 157.618 88.1294 157.618 69.321C157.618 51.2543 152.125 41.7452 141.874 41.7452C131.973 41.7452 126.159 51.7791 126.159 69.0062H126.131Z" fill="#5EFCE8"/>
<path d="M116.335 105.776C112.966 102.455 110.342 98.4553 108.638 94.042C105.854 86.2812 104.459 78.0906 104.517 69.8458C104.517 58.7553 107.162 47.238 111.178 40.5837C117.622 29.801 128.608 23.8884 141.923 23.8884C152.174 23.8884 161.152 27.387 167.596 33.6845C170.965 37.0028 173.589 41.0005 175.293 45.4117C178.083 53.2072 179.475 61.4336 179.407 69.7129C179.407 80.8104 176.769 92.4327 172.753 99.101C166.414 109.681 155.323 115.614 141.902 115.614C131.547 115.614 122.779 112.214 116.335 105.776ZM126.131 69.0062C126.131 87.8985 131.519 97.6386 141.979 97.6386C152.44 97.6386 157.618 88.1294 157.618 69.321C157.618 51.2543 152.125 41.7452 141.874 41.7452C131.973 41.7452 126.159 51.7791 126.159 69.0062H126.131Z" fill="url(#paint3_linear)"/>
<path d="M23.9374 77.2209C28.6955 71.938 28.6955 71.938 34.0833 65.5986L57.013 38.7574C60.5917 34.8125 63.8664 30.6022 66.809 26.1625H88.5002C87.8798 31.9886 87.5971 37.8457 87.6536 43.7044V78.0465H90.7183C94.2324 78.0101 97.7396 77.7272 101.214 77.1999V96.4281C97.7788 96.0002 94.3201 95.7875 90.8583 95.7913H87.6886V101.074C87.5868 105.422 87.8702 109.77 88.5352 114.068H66.7321C67.3293 109.711 67.6122 105.317 67.5787 100.92V95.7424H37.6728C30.8086 95.7424 27.8768 95.8473 23.9374 96.1692V77.2209ZM67.6837 66.0254C67.6837 61.2673 67.8936 55.4597 68.3134 50.8136C66.2143 53.7664 64.6189 55.8795 61.7641 59.476L46.3703 78.2844H67.6837V66.0254Z" fill="#5EFCE8"/>
<path d="M118.707 106.168C115.338 102.849 112.715 98.8517 111.01 94.4408C108.219 86.6812 106.817 78.4906 106.868 70.2446C106.868 59.1541 109.513 47.6367 113.529 40.9754C119.973 30.1998 130.959 24.2872 144.275 24.2872C154.519 24.2872 163.503 27.7858 169.947 34.0832C173.318 37.3999 175.942 41.3981 177.644 45.8105C180.45 53.6098 181.852 61.8443 181.786 70.1326C181.786 81.2231 179.149 92.8524 175.132 99.5207C168.793 110.086 157.695 115.999 144.282 115.999C133.926 115.992 125.158 112.612 118.707 106.168ZM128.559 69.4329C128.559 88.3252 133.947 98.0653 144.408 98.0653C154.763 98.0653 160.046 88.5562 160.046 69.7548C160.046 51.6811 154.546 42.1719 144.303 42.1719C134.346 42.1439 128.559 52.1779 128.559 69.4329Z" fill="#5EFCE8"/>
<path d="M161.516 32.6628C162.303 33.2366 162.903 34.0303 163.24 34.9441C163.578 35.8579 163.637 36.8511 163.412 37.7988C164.732 37.9248 166.014 38.3113 167.184 38.9358C168.354 39.5603 169.388 40.4105 170.227 41.4373C171.731 43.4218 172.641 45.7924 172.851 48.2735C173.053 50.7401 172.999 53.221 172.69 55.6765C172.655 56.5251 172.48 57.3621 172.172 58.1535C171.81 58.84 171.301 59.4377 170.68 59.9036C170.059 60.3694 169.343 60.6917 168.583 60.8474C167.063 61.1508 165.506 61.224 163.965 61.0643L160.291 60.8684C160.17 60.8712 160.05 60.8448 159.941 60.7915C159.868 60.7289 159.808 60.6518 159.766 60.5651C159.724 60.4784 159.7 60.384 159.696 60.2877C159.445 58.7833 159.06 58.1255 158.787 56.6211C158.105 53.4449 156.771 50.445 154.868 47.8117C154.531 47.4181 154.292 46.9507 154.169 46.4473C154.126 45.7513 154.282 45.0576 154.616 44.4461C155.114 43.2429 155.525 42.0059 155.848 40.7446C156.145 39.2351 156.53 37.7444 157.002 36.2804C157.484 34.8007 158.476 33.5406 159.801 32.7258" fill="url(#paint4_linear)"/>
<path d="M159.801 76.6119C159.801 76.6119 173.25 77.8014 179.393 69.6148C181.842 66.3681 176.385 51.0723 176.385 51.0723L170.178 62.1838L160.382 64.4089L159.801 76.6119Z" fill="url(#paint5_linear)"/>
<path d="M187.279 77.2209C192.03 71.938 192.03 71.938 197.418 65.5986L220.348 38.7574C225.421 32.9498 227.429 30.3049 230.144 26.1625H251.835C251.221 31.996 250.945 37.8601 251.009 43.7254V78.0675H254.074C257.577 78.0294 261.072 77.7465 264.535 77.2209V96.4491C261.1 96.0212 257.641 95.8085 254.179 95.8123H251.009V101.095C250.908 105.443 251.191 109.791 251.856 114.089H230.067C230.665 109.725 230.948 105.324 230.913 100.92V95.7424H201.015C194.143 95.7424 191.184 95.8473 187.279 96.1692V77.2209ZM231.018 66.0254C231.018 61.2673 231.228 55.4597 231.655 50.8136C229.556 53.7664 227.954 55.8795 225.106 59.476L209.677 78.2844H231.018V66.0254Z" fill="#5EFCE8"/>
<path d="M128.244 52.6818C127.882 52.814 127.531 52.9755 127.195 53.1646C126.879 53.3244 126.602 53.5512 126.383 53.8293C126.276 53.9703 126.207 54.1362 126.183 54.3114C126.158 54.4866 126.179 54.6651 126.243 54.8299C126.385 55.049 126.59 55.2202 126.831 55.3213C127.072 55.4224 127.337 55.4486 127.593 55.3967C128.454 55.3127 129.252 54.8859 130.112 54.7389C130.973 54.592 131.785 53.9973 131.176 53.0806C130.567 52.164 129.105 52.3599 128.244 52.6818Z" fill="#F7AF87"/>
<path d="M130.987 54.7389C129.727 54.41 128.412 54.9628 127.278 55.5996C127.011 55.7298 126.773 55.9131 126.579 56.1383C126.462 56.2312 126.378 56.359 126.339 56.503C126.3 56.6469 126.308 56.7995 126.362 56.9386C126.416 57.0776 126.513 57.1958 126.639 57.2759C126.765 57.356 126.913 57.3938 127.062 57.3838C127.319 57.4096 127.579 57.3931 127.831 57.3349L129.574 57.034C129.979 56.9866 130.374 56.8731 130.742 56.6981C131.533 56.2363 132.204 55.0398 130.987 54.7389Z" fill="#F7AF87"/>
<path d="M128.559 57.0549C128.198 57.1925 127.847 57.3562 127.509 57.5447C127.19 57.7146 126.913 57.9536 126.698 58.2444C126.593 58.3849 126.525 58.5496 126.5 58.7233C126.476 58.8969 126.496 59.074 126.558 59.238C126.7 59.4571 126.905 59.6283 127.146 59.7294C127.387 59.8304 127.652 59.8567 127.908 59.8048C128.769 59.7208 129.567 59.294 130.427 59.147C131.288 59.0001 132.099 58.4123 131.491 57.4887C130.882 56.5651 129.406 56.733 128.559 57.0549Z" fill="#F7AF87"/>
<path d="M131.274 58.8182C129.979 58.7132 128.783 59.5179 127.775 60.3156C127.53 60.4947 127.324 60.7207 127.167 60.9803C127.07 61.0929 127.013 61.2332 127.001 61.3809C126.99 61.5285 127.026 61.676 127.103 61.802C127.181 61.928 127.297 62.0261 127.434 62.0821C127.571 62.1382 127.722 62.1493 127.866 62.1138C128.122 62.0948 128.373 62.0333 128.608 61.9319L130.266 61.3232C130.66 61.2051 131.031 61.0231 131.365 60.7844C132.058 60.2106 132.526 58.9371 131.274 58.8182Z" fill="#F7AF87"/>
<path d="M168.359 39.065C166.319 38.0927 164.075 37.6248 161.816 37.7006C161.435 37.6821 161.053 37.7441 160.697 37.8825C160.523 37.9586 160.374 38.0838 160.27 38.2428C160.165 38.4019 160.11 38.5879 160.109 38.7781C160.177 39.1101 160.367 39.4046 160.641 39.6038C161.467 40.3552 162.395 40.9865 163.398 41.479C163.7 41.5985 163.976 41.7769 164.209 42.0038C164.324 42.1187 164.397 42.2677 164.418 42.4281C164.44 42.5886 164.408 42.7517 164.328 42.8925C164.098 43.2143 163.566 43.2283 163.391 43.5922C163.16 44.047 163.741 44.4948 164.244 44.5788C164.78 44.6704 165.33 44.6198 165.84 44.4318C166.197 44.2482 166.587 44.1387 166.987 44.11C167.383 44.1948 167.755 44.3642 168.079 44.6068C169.184 45.2365 172.62 45.2575 172.403 43.3403C172.2 41.563 169.772 39.7997 168.359 39.065Z" fill="#F7AF87"/>
<path d="M151.454 54.4938C151.454 54.4938 166.924 60.8683 168.695 60.5394C170.465 60.2105 167.603 44.9427 167.603 44.9427L172.879 42.5287C172.879 42.5287 184.774 66.1091 175.034 69.5377C169.011 71.5532 162.485 71.4842 156.506 69.3418L151.454 54.4938Z" fill="#5EFCE8"/>
<path d="M159.682 45.6425C159.628 47.0122 159.304 48.3579 158.731 49.6029C158.169 50.5306 157.399 51.315 156.483 51.8942C155.566 52.4734 154.527 52.8316 153.448 52.9405C152.662 52.9912 151.88 53.1012 151.111 53.2694C150.754 53.3425 150.421 53.5028 150.141 53.736C149.862 53.9692 149.644 54.2681 149.508 54.6059C148.886 56.1172 148.242 57.6496 146.234 57.1388C146.045 57.097 145.862 57.0336 145.688 56.9499C145.057 56.6535 144.489 56.2377 144.016 55.7254C143.426 55.1291 142.914 54.4615 142.49 53.7382C142.271 53.4035 142.123 53.0271 142.056 52.6327C142.015 52.1481 142.072 51.6602 142.224 51.1982C142.924 48.3994 143.036 45.2297 144.03 42.5008C145.047 39.7345 146.99 37.4056 149.529 35.9094C152.041 34.447 155.533 34.426 157.667 36.4202C158.835 37.5891 159.574 39.1175 159.766 40.7585C159.934 42.3839 159.906 44.0237 159.682 45.6425Z" fill="#F7AF87"/>
<path d="M142.665 42.1439C142.798 40.8284 142.791 39.492 143.05 38.1975C143.246 36.875 143.909 35.6662 144.918 34.7899C145.172 34.5885 145.455 34.428 145.758 34.3141C146.031 34.2161 146.318 34.1601 146.598 34.0832C147.42 33.7899 148.204 33.4 148.935 32.9216C150.042 32.258 151.253 31.785 152.517 31.5222C153.372 31.3915 154.235 31.3307 155.099 31.3403C156.685 31.3123 158.278 31.2983 159.878 31.2983C160.254 31.2701 160.631 31.3325 160.977 31.4802C161.357 31.715 161.635 32.0849 161.754 32.5158C162.058 33.4813 162.058 34.5171 161.754 35.4826C161.444 36.4378 161.033 37.3572 160.529 38.2255C160.283 38.7727 159.937 39.2688 159.507 39.6879C159.137 39.0442 158.808 38.3794 158.472 37.7077C157.401 38.8203 155.715 39.1071 154.176 38.9882C152.636 38.8692 151.125 38.4704 149.585 38.4494C149.219 38.4106 148.849 38.4444 148.496 38.5488C148.143 38.6533 147.814 38.8264 147.528 39.0581C147.184 39.46 146.943 39.9407 146.829 40.4576C146.505 41.6094 146.241 42.7771 146.038 43.9562C145.856 43.6133 145.121 42.7177 144.736 42.7317C144.625 42.7424 144.518 42.7759 144.42 42.8301C144.323 42.8842 144.237 42.9579 144.17 43.0465C143.533 43.7463 143.848 46.3142 144.436 47.0559C144.553 47.1683 144.642 47.3075 144.694 47.4618C144.706 47.5649 144.698 47.6693 144.669 47.769C144.64 47.8687 144.592 47.9616 144.527 48.0425C144.365 48.2334 144.16 48.3826 143.928 48.4776C143.697 48.5726 143.446 48.6105 143.197 48.5883C142.581 48.5883 142.462 47.4128 142.399 46.9789C142.141 45.3626 142.511 43.7323 142.665 42.1439Z" fill="#606060"/>
<path d="M145.121 45.0968C145.035 44.916 144.996 44.716 145.009 44.516C145.024 44.3156 145.002 44.1142 144.946 43.9212C144.882 43.7443 144.755 43.5973 144.589 43.5084C144.541 43.4946 144.49 43.4946 144.442 43.5084C144.402 43.5256 144.366 43.5524 144.338 43.5865C144.31 43.6207 144.29 43.6611 144.282 43.7043C144.037 44.4713 144.064 45.2992 144.358 46.0484C144.397 46.1827 144.466 46.3066 144.559 46.4107C144.652 46.5149 144.768 46.5967 144.897 46.6501C145.011 46.673 145.129 46.667 145.24 46.6328C145.352 46.5986 145.453 46.5372 145.534 46.4542C145.644 46.3377 145.719 46.1928 145.752 46.0358C145.784 45.8788 145.771 45.7159 145.716 45.5656C145.597 45.2857 145.268 45.3487 145.121 45.0968Z" fill="url(#paint6_linear)"/>
<path d="M151.111 53.2554C150.754 53.3285 150.421 53.4888 150.142 53.722C149.862 53.9552 149.644 54.2541 149.509 54.5919C148.886 56.1032 148.242 57.6356 146.234 57.1248C146.045 57.083 145.862 57.0196 145.688 56.9359C145.518 56.7906 145.38 56.612 145.282 56.4111C145.192 56.175 145.151 55.9232 145.161 55.6707C145.17 55.4183 145.231 55.1703 145.338 54.9417C145.581 54.3537 145.989 53.8489 146.513 53.4886C147.037 53.1283 147.655 52.9282 148.291 52.9125C148.825 52.9372 149.357 53.0075 149.879 53.1225C150.201 53.1644 150.579 53.1225 150.873 53.1574C150.958 53.1728 151.039 53.2062 151.111 53.2554Z" fill="url(#paint7_linear)"/>
</g>
<defs>
<linearGradient id="paint0_linear" x1="-45.6705" y1="5.87066" x2="183.788" y2="134.269" gradientUnits="userSpaceOnUse">
<stop stop-opacity="0"/>
<stop offset="0.99"/>
</linearGradient>
<linearGradient id="paint1_linear" x1="4580.86" y1="7571.78" x2="1905.56" y2="8312.1" gradientUnits="userSpaceOnUse">
<stop stop-opacity="0"/>
<stop offset="0.99"/>
</linearGradient>
<linearGradient id="paint2_linear" x1="33037.3" y1="21933.1" x2="8432.11" y2="3503.41" gradientUnits="userSpaceOnUse">
<stop stop-opacity="0"/>
<stop offset="0.99"/>
</linearGradient>
<linearGradient id="paint3_linear" x1="22265.1" y1="15361.4" x2="-1268.46" y2="14581.9" gradientUnits="userSpaceOnUse">
<stop stop-opacity="0"/>
<stop offset="0.99"/>
</linearGradient>
<linearGradient id="paint4_linear" x1="5030.11" y1="3034.28" x2="2602.44" y2="4750.37" gradientUnits="userSpaceOnUse">
<stop stop-opacity="0"/>
<stop offset="0.99"/>
</linearGradient>
<linearGradient id="paint5_linear" x1="5143.63" y1="4667.52" x2="4726.05" y2="3111.41" gradientUnits="userSpaceOnUse">
<stop stop-opacity="0"/>
<stop offset="0.99"/>
</linearGradient>
<linearGradient id="paint6_linear" x1="485.716" y1="449.848" x2="490.362" y2="449.005" gradientUnits="userSpaceOnUse">
<stop stop-opacity="0"/>
<stop offset="0.99"/>
</linearGradient>
<linearGradient id="paint7_linear" x1="1379.01" y1="649.682" x2="1445.76" y2="725.164" gradientUnits="userSpaceOnUse">
<stop stop-opacity="0"/>
<stop offset="0.99"/>
</linearGradient>
<clipPath id="clip0">
<rect width="293.93" height="143.351" fill="white"/>
</clipPath>
</defs>
</svg>
