<svg width="300" height="164" viewBox="0 0 300 164" fill="none" xmlns="http://www.w3.org/2000/svg">
<g clip-path="url(#clip0)">
<path d="M150.963 164C232.31 164 298.255 159.611 298.255 154.197C298.255 148.783 232.31 144.394 150.963 144.394C69.6152 144.394 3.67004 148.783 3.67004 154.197C3.67004 159.611 69.6152 164 150.963 164Z" fill="#F2F2F2"/>
<path d="M145.317 46.8813C121.319 46.8813 104.089 62.3596 104.089 98.4754C104.089 139.407 121.319 150.241 145.317 150.241C169.315 150.241 187.572 138.375 187.572 98.4754C187.572 55.8243 169.315 46.8813 145.317 46.8813ZM145.475 136.655C128.853 136.655 120.17 126.852 120.17 98.5018C120.17 73.4872 129.209 60.2958 145.83 60.2958C162.452 60.2958 171.491 68.9607 171.491 98.5018C171.491 126.137 162.097 136.655 145.475 136.655Z" fill="#2F2E41"/>
<path d="M89.719 121.693H79.7968V92.3194C79.7968 90.7593 79.1803 89.263 78.083 88.1598C76.9856 87.0566 75.4973 86.4369 73.9454 86.4369H71.6204C70.852 86.4369 70.0911 86.589 69.3812 86.8846C68.6712 87.1803 68.0262 87.6136 67.4828 88.1598C66.9395 88.7061 66.5084 89.3546 66.2144 90.0683C65.9203 90.782 65.769 91.5469 65.769 92.3194V121.693H37.7819C37.2062 121.693 36.6402 121.543 36.1389 121.259C35.6376 120.974 35.218 120.564 34.9209 120.068C34.6237 119.572 34.459 119.008 34.4428 118.429C34.4266 117.851 34.5594 117.278 34.8284 116.766L64.4495 60.4045C64.8188 59.7019 65.0427 58.9312 65.1075 58.1392C65.1724 57.3471 65.0769 56.5501 64.8269 55.7962C64.5769 55.0422 64.1776 54.347 63.6529 53.7525C63.1283 53.158 62.4893 52.6766 61.7744 52.3372L60.0258 51.5071C58.668 50.8625 57.1157 50.7674 55.6901 51.2413C54.2645 51.7152 53.0747 52.7219 52.3668 54.0532L16.2399 121.994C15.6247 123.151 15.3029 124.443 15.3029 125.755C15.3029 126.802 15.5081 127.84 15.9068 128.807C16.3056 129.775 16.89 130.654 17.6268 131.395C18.3636 132.136 19.2383 132.723 20.2009 133.124C21.1636 133.525 22.1954 133.731 23.2373 133.731H65.769V152.305C65.769 153.231 65.9504 154.148 66.3029 155.004C66.6553 155.859 67.172 156.636 67.8233 157.291C68.4746 157.946 69.2478 158.465 70.0988 158.82C70.9497 159.174 71.8618 159.356 72.7829 159.356H72.7829C73.704 159.356 74.616 159.174 75.467 158.82C76.318 158.465 77.0912 157.946 77.7425 157.291C78.3938 156.636 78.9104 155.859 79.2629 155.004C79.6154 154.148 79.7968 153.231 79.7968 152.305V133.731H89.719C91.307 133.731 92.8299 133.097 93.9528 131.968C95.0756 130.84 95.7065 129.309 95.7065 127.712C95.7065 126.116 95.0757 124.585 93.9528 123.456C92.8299 122.327 91.307 121.693 89.719 121.693Z" fill="#27AE60"/>
<path d="M273.45 121.693H263.528V92.3194C263.528 90.7593 262.911 89.263 261.814 88.1598C260.716 87.0566 259.228 86.4369 257.676 86.4369H255.351C254.583 86.4369 253.822 86.589 253.112 86.8846C252.402 87.1803 251.757 87.6136 251.214 88.1598C250.67 88.7061 250.239 89.3546 249.945 90.0683C249.651 90.782 249.5 91.5469 249.5 92.3194V121.693H221.513C220.937 121.693 220.371 121.543 219.87 121.259C219.368 120.974 218.949 120.564 218.652 120.068C218.355 119.572 218.19 119.008 218.174 118.429C218.157 117.851 218.29 117.278 218.559 116.766L248.18 60.4046C248.55 59.7019 248.773 58.9313 248.838 58.1392C248.903 57.3471 248.808 56.5501 248.558 55.7962C248.308 55.0422 247.908 54.347 247.384 53.7525C246.859 53.158 246.22 52.6766 245.505 52.3372L243.757 51.5071C242.399 50.8625 240.847 50.7674 239.421 51.2413C237.995 51.7152 236.805 52.7219 236.098 54.0532L199.971 121.994C199.356 123.151 199.034 124.443 199.034 125.755C199.034 127.87 199.87 129.899 201.358 131.395C202.846 132.891 204.864 133.731 206.968 133.731H249.5V152.305C249.5 154.175 250.239 155.969 251.554 157.291C252.869 158.614 254.653 159.356 256.514 159.356C258.374 159.356 260.158 158.614 261.473 157.291C262.789 155.969 263.528 154.175 263.528 152.305V133.731H273.45C275.038 133.731 276.561 133.097 277.684 131.968C278.806 130.84 279.437 129.309 279.437 127.712C279.437 126.116 278.806 124.585 277.684 123.456C276.561 122.327 275.038 121.693 273.45 121.693Z" fill="#27AE60"/>
<path d="M92.4562 118.253H82.534V88.88C82.534 88.1074 82.3827 87.3425 82.0886 86.6288C81.7945 85.9151 81.3635 85.2666 80.8202 84.7204C80.2768 84.1741 79.6317 83.7408 78.9218 83.4452C78.2119 83.1496 77.451 82.9974 76.6826 82.9974H74.3576C72.8057 82.9974 71.3174 83.6172 70.22 84.7204C69.1226 85.8236 68.5061 87.3198 68.5061 88.88V118.253H40.5191C39.9434 118.253 39.3774 118.104 38.8761 117.819C38.3748 117.534 37.9552 117.124 37.658 116.629C37.3609 116.133 37.1962 115.568 37.18 114.99C37.1638 114.411 37.2966 113.838 37.5656 113.326L67.1867 56.9651C67.556 56.2624 67.7799 55.4918 67.8447 54.6997C67.9096 53.9077 67.8141 53.1106 67.5641 52.3567C67.3141 51.6028 66.9147 50.9076 66.3901 50.3131C65.8655 49.7186 65.2264 49.2371 64.5116 48.8978L62.763 48.0677C61.4052 47.4231 59.8529 47.3279 58.4273 47.8018C57.0017 48.2757 55.8119 49.2825 55.104 50.6137L18.9771 118.555C18.3619 119.712 18.04 121.003 18.04 122.315V122.315C18.04 124.431 18.876 126.46 20.364 127.956C21.852 129.452 23.8702 130.292 25.9745 130.292H68.5061V148.866C68.5061 149.792 68.6876 150.709 69.0401 151.564C69.3925 152.42 69.9092 153.197 70.5605 153.852C71.2118 154.507 71.985 155.026 72.836 155.38C73.6869 155.735 74.599 155.917 75.5201 155.917H75.5201C77.3803 155.917 79.1643 155.174 80.4797 153.852C81.795 152.529 82.534 150.736 82.534 148.866V130.292H92.4562C93.2424 130.292 94.021 130.136 94.7475 129.834C95.4739 129.531 96.134 129.088 96.69 128.529C97.246 127.97 97.687 127.306 97.9879 126.576C98.2888 125.846 98.4437 125.063 98.4437 124.273V124.273C98.4437 123.482 98.2888 122.699 97.9879 121.969C97.687 121.239 97.246 120.575 96.69 120.016C96.134 119.457 95.4739 119.014 94.7475 118.712C94.0211 118.409 93.2425 118.253 92.4562 118.253V118.253Z" stroke="#3F3D56" stroke-miterlimit="10"/>
<path d="M278.582 118.253H268.66V88.88C268.66 87.3198 268.043 85.8236 266.946 84.7204C265.849 83.6172 264.36 82.9974 262.808 82.9974H260.483C259.715 82.9974 258.954 83.1496 258.244 83.4452C257.534 83.7408 256.889 84.1741 256.346 84.7204C255.802 85.2666 255.371 85.9151 255.077 86.6288C254.783 87.3425 254.632 88.1074 254.632 88.88V118.253H226.645C226.069 118.253 225.503 118.104 225.002 117.819C224.501 117.534 224.081 117.124 223.784 116.629C223.487 116.133 223.322 115.568 223.306 114.99C223.29 114.411 223.422 113.838 223.691 113.326L253.313 56.9651C253.682 56.2624 253.906 55.4918 253.971 54.6997C254.035 53.9077 253.94 53.1106 253.69 52.3567C253.44 51.6028 253.041 50.9076 252.516 50.3131C251.991 49.7186 251.352 49.2371 250.637 48.8978L248.889 48.0677C247.531 47.4231 245.979 47.3279 244.553 47.8018C243.128 48.2757 241.938 49.2825 241.23 50.6137L205.103 118.555C204.488 119.712 204.166 121.003 204.166 122.315C204.166 124.431 205.002 126.46 206.49 127.956C207.978 129.452 209.996 130.292 212.1 130.292H254.632V148.866C254.632 150.736 255.371 152.529 256.686 153.852C258.002 155.174 259.786 155.917 261.646 155.917V155.917C263.506 155.917 265.29 155.174 266.605 153.852C267.921 152.529 268.66 150.736 268.66 148.866V130.292H278.582C279.368 130.292 280.147 130.136 280.873 129.834C281.6 129.531 282.26 129.088 282.816 128.529C283.372 127.97 283.813 127.306 284.114 126.576C284.415 125.846 284.569 125.063 284.569 124.273V124.273C284.569 122.676 283.939 121.145 282.816 120.016C281.693 118.888 280.17 118.253 278.582 118.253V118.253Z" stroke="#3F3D56" stroke-miterlimit="10"/>
<path d="M150.792 43.7856C126.794 43.7856 109.563 59.2639 109.563 95.3797C109.563 136.311 126.794 147.146 150.792 147.146C174.79 147.146 193.046 135.279 193.046 95.3797C193.046 52.7286 174.79 43.7856 150.792 43.7856ZM150.949 133.559C134.328 133.559 125.644 123.756 125.644 95.4061C125.644 70.3915 134.683 57.2001 151.305 57.2001C167.926 57.2001 176.966 65.865 176.966 95.4061C176.966 123.041 167.571 133.559 150.949 133.559V133.559Z" stroke="#3F3D56" stroke-miterlimit="10"/>
<path d="M131.556 8.74447C133.545 8.74447 135.158 7.12307 135.158 5.12297C135.158 3.12287 133.545 1.50146 131.556 1.50146C129.566 1.50146 127.953 3.12287 127.953 5.12297C127.953 7.12307 129.566 8.74447 131.556 8.74447Z" fill="#2F2E41"/>
<path d="M140.342 26.3221C145.922 26.3221 150.446 20.4297 150.446 13.1611C150.446 5.89241 145.922 0 140.342 0C134.761 0 130.238 5.89241 130.238 13.1611C130.238 20.4297 134.761 26.3221 140.342 26.3221Z" fill="#2F2E41"/>
<path opacity="0.1" d="M140.342 22.3472C135.28 22.3472 131.088 17.4992 130.352 11.1736C130.276 11.8333 130.238 12.4968 130.238 13.161C130.238 20.4296 134.762 26.3221 140.342 26.3221C145.922 26.3221 150.446 20.4297 150.446 13.161C150.446 12.4968 150.408 11.8333 150.332 11.1736C149.596 17.4992 145.404 22.3472 140.342 22.3472Z" fill="black"/>
<path d="M160.903 51.7037C160.686 52.6001 159.75 53.3181 158.714 53.8197C156.536 54.8743 153.848 55.1889 151.242 55.2946C150.577 55.3352 149.91 55.3228 149.247 55.2575C147.962 55.1326 146.757 54.5756 145.826 53.6767C145.76 53.6332 145.706 53.5734 145.668 53.503C145.631 53.4326 145.612 53.3539 145.613 53.2742C145.615 53.1945 145.636 53.1163 145.675 53.0471C145.715 52.9779 145.771 52.9199 145.839 52.8784C147.226 51.346 149.542 50.4065 151.874 49.7299C153.643 49.217 156.728 47.8882 158.657 48.0675C160.525 48.2412 161.177 50.5718 160.903 51.7037Z" fill="#3F3D56"/>
<path opacity="0.1" d="M160.903 51.7037C160.686 52.6001 159.75 53.3181 158.714 53.8197C156.536 54.8743 153.848 55.1889 151.242 55.2946C150.577 55.3352 149.91 55.3228 149.247 55.2575C147.962 55.1326 146.757 54.5756 145.826 53.6767C145.76 53.6332 145.706 53.5734 145.668 53.503C145.631 53.4326 145.612 53.3539 145.613 53.2742C145.615 53.1945 145.636 53.1163 145.675 53.0471C145.715 52.9779 145.771 52.9199 145.839 52.8784C147.226 51.346 149.542 50.4065 151.874 49.7299C153.643 49.217 156.728 47.8882 158.657 48.0675C160.525 48.2412 161.177 50.5718 160.903 51.7037Z" fill="black"/>
<path d="M133.204 45.0041C132.539 46.3143 132.418 47.8363 132.869 49.2357C133.327 50.6245 134.185 51.8454 135.334 52.7437C138.153 55.0151 142.033 55.3277 145.645 55.2962C148.811 55.2685 151.972 55.0506 155.112 54.6438C156.164 54.5501 157.198 54.3087 158.184 53.9268C159.363 53.414 160.399 52.4734 160.819 51.2528C161.239 50.0322 160.941 48.5376 159.944 47.7231C159.068 47.0073 157.86 46.9089 156.733 46.8408L150.287 46.4514C150.924 45.8034 151.772 45.4369 152.547 44.9658C153.576 44.3408 154.26 43.2915 155.008 42.3454C156.161 40.9603 157.415 39.6638 158.761 38.4669C158.97 39.6768 159.732 40.6704 160.628 41.5053C161.524 42.3401 162.557 43.0122 163.488 43.8071C165.744 45.7324 167.368 48.3454 169.741 50.1232C171.373 49.6921 172.898 48.9264 174.222 47.8741L173.3 46.1951C173.223 46.0223 173.103 45.8722 172.952 45.7592C172.691 45.5978 172.355 45.681 172.052 45.6353C171.242 45.5132 170.888 44.5731 170.57 43.8142C169.698 41.7308 168.027 40.1145 166.6 38.3673C165.547 37.0777 164.613 35.6943 163.809 34.2345C163.33 33.3638 162.891 32.4573 162.241 31.7072C161.59 30.9571 160.679 30.3673 159.689 30.3652C158.814 30.3634 158.008 30.8098 157.256 31.2588C154.965 32.6264 152.762 34.1357 150.657 35.7779C149.556 36.6374 148.462 37.5454 147.17 38.0724C146.626 38.2943 146.053 38.4459 145.531 38.7159C144.617 39.1887 143.924 39.9887 143.177 40.6989C140.514 43.2318 136.868 44.8728 133.204 45.0041Z" fill="#3F3D56"/>
<path d="M146.684 26.9758C146.654 27.7501 146.49 28.5132 146.2 29.2309C146.052 29.5889 145.833 29.9125 145.556 30.1816C145.279 30.4508 144.95 30.6596 144.589 30.7952C144.077 30.9332 143.539 30.9508 143.019 30.8464C142.565 30.7988 142.128 30.649 141.74 30.4083C141.135 29.9905 140.834 29.245 140.724 28.5154C140.614 27.7867 140.663 27.0421 140.593 26.3081C140.525 25.7152 140.412 25.1283 140.257 24.5521C140.21 24.3604 140.162 24.1696 140.114 23.9788C140.068 23.788 140.022 23.5972 139.98 23.4065C139.941 23.2271 139.905 23.047 139.874 22.8659C139.849 22.7131 139.826 22.5594 139.809 22.4048C139.794 21.9465 139.718 21.4924 139.584 21.0543C139.457 20.7701 139.299 20.5013 139.113 20.2531C139.033 20.1383 138.955 20.0234 138.884 19.9042C138.678 19.5943 138.583 19.2236 138.613 18.8522C138.621 18.7948 138.635 18.7383 138.654 18.6835C138.661 18.6623 138.669 18.6411 138.678 18.6208C138.757 18.5992 138.829 18.5586 138.889 18.5024C138.949 18.4462 138.994 18.3762 139.021 18.2984C139.051 18.1313 139.037 17.9591 138.98 17.7993C138.914 17.576 138.824 17.3607 138.712 17.1571C138.638 17.0229 138.388 16.7809 138.386 16.6272C138.382 16.318 138.983 16.0689 139.227 15.947C139.97 15.573 140.798 15.4042 141.627 15.4577C142.159 15.4939 142.735 15.6582 143.029 16.106C143.292 16.5097 143.257 17.0326 143.37 17.5016C143.381 17.5698 143.41 17.6339 143.453 17.688C143.51 17.7405 143.583 17.7739 143.659 17.7834C143.79 17.8094 143.923 17.8148 144.055 17.7993H144.056C144.091 17.7965 144.125 17.7915 144.159 17.7843C144.365 17.7462 144.559 17.662 144.727 17.5378C144.836 17.5087 144.946 17.4848 145.057 17.4663C145.061 17.4658 145.065 17.4649 145.07 17.4636C145.51 18.8601 145.567 20.3573 145.927 21.7794C146.106 22.4869 146.361 23.1856 146.397 23.9134C146.4 23.9452 146.401 23.9779 146.402 24.0106C146.407 24.2447 146.389 24.4805 146.398 24.7137C146.402 24.8187 146.413 24.9233 146.433 25.0264C146.473 25.1922 146.522 25.3556 146.58 25.5157L146.583 25.5237C146.599 25.5749 146.615 25.627 146.628 25.6791C146.638 25.7171 146.647 25.7542 146.654 25.7922L146.655 25.7949C146.72 26.1852 146.73 26.5828 146.684 26.9758Z" fill="#FBBEBE"/>
<path d="M140.518 17.8425C143.381 17.8425 145.702 15.5093 145.702 12.6311C145.702 9.75291 143.381 7.41968 140.518 7.41968C137.655 7.41968 135.334 9.75291 135.334 12.6311C135.334 15.5093 137.655 17.8425 140.518 17.8425Z" fill="#FBBEBE"/>
<path d="M173.429 41.0255C173.279 39.6037 172.776 38.2425 171.967 37.0666C172.102 37.8704 172.236 38.6739 172.371 39.4771C172.203 39.5259 172.025 39.5244 171.858 39.4728C171.691 39.4212 171.543 39.3217 171.431 39.1865C171.213 38.9125 171.046 38.6009 170.938 38.267C170.349 36.7972 169.579 35.4075 168.646 34.1305C165.346 33.854 162.083 32.4788 159.181 30.8756C156.278 29.2733 153.562 27.3521 150.697 25.6818C150.201 25.38 149.683 25.1144 149.149 24.8868C148.253 24.5256 147.247 24.3383 146.397 23.9134C146.34 23.8852 146.283 23.8552 146.227 23.8242C146.035 23.7193 145.853 23.5966 145.684 23.4577C145.592 23.383 145.506 23.3028 145.424 23.2174C145 22.7216 144.664 22.1563 144.43 21.5462C143.974 20.5322 143.812 19.3088 143.356 18.2948C143.566 18.0983 143.801 17.9316 144.055 17.7993H144.056C144.093 17.7799 144.13 17.7613 144.167 17.7436C144.347 17.6584 144.535 17.5895 144.727 17.5378C144.836 17.5087 144.946 17.4848 145.057 17.4663C145.061 17.4658 145.065 17.4649 145.07 17.4636C145.583 17.3796 146.109 17.4214 146.603 17.5855C147.325 17.8311 147.934 18.3213 148.541 18.785C149.528 19.4836 150.474 20.238 151.375 21.0445C151.876 21.5268 152.332 22.0568 152.871 22.4949C153.319 22.8421 153.79 23.1565 154.283 23.4356C157.197 25.181 160.112 26.9261 163.027 28.6709C164.014 29.2618 165.001 29.8527 165.966 30.4781C167.432 31.4285 168.844 32.4584 170.256 33.4875C171.088 34.0934 171.92 34.6996 172.752 35.3062C173.025 35.4811 173.264 35.7037 173.459 35.9633C173.631 36.2582 173.738 36.5868 173.773 36.927C173.981 38.3013 173.864 39.7057 173.429 41.0255Z" fill="#FBBEBE"/>
<path d="M147.969 30.895C147.62 32.4717 146.034 33.4248 145.206 34.8098C144.176 36.5286 144.596 38.5266 144.983 40.4955C144.276 41.1076 143.57 41.7198 142.863 42.3319C142.473 42.6684 142.082 43.0067 141.662 43.3044C141.05 43.7169 140.41 44.0864 139.747 44.4103C139.121 44.7336 138.496 45.0571 137.87 45.381C137.289 45.7097 136.673 45.9722 136.033 46.1636C134.8 46.4816 133.491 46.259 132.272 45.8907C132.128 45.8527 131.99 45.796 131.86 45.7219C131.784 45.6763 131.718 45.616 131.665 45.5444C131.545 45.3277 131.502 45.0764 131.542 44.8316C131.665 42.7682 132.167 40.7481 132.667 38.7431C132.934 37.5402 133.294 36.3598 133.742 35.2125C134.181 34.2295 134.686 33.2775 135.254 32.363C135.88 31.2125 136.622 30.1295 137.468 29.1311C137.88 28.7468 138.226 28.2975 138.494 27.8008C138.806 27.0854 138.686 26.2648 138.749 25.4857C138.797 24.9004 138.952 24.3289 139.205 23.7995V23.7986C139.34 23.5135 139.503 23.2425 139.692 22.9895C139.777 23.1892 139.862 23.3885 139.947 23.5875C140.004 23.7182 140.059 23.8487 140.114 23.9788C140.186 24.1467 140.258 24.3139 140.329 24.4805C140.533 24.9593 140.738 25.4377 140.942 25.9159C141.163 26.5181 141.477 27.0813 141.873 27.5844C142.054 27.8421 142.299 28.048 142.583 28.1822C142.867 28.3165 143.181 28.3743 143.494 28.3502C143.807 28.3261 144.108 28.2208 144.368 28.0446C144.629 27.8685 144.839 27.6274 144.979 27.3451C145.275 26.818 145.488 26.2488 145.614 25.6571C145.787 24.9366 145.811 24.1879 145.684 23.4577C145.472 22.0515 144.877 20.6153 144.445 19.3089C144.269 18.8733 144.167 18.4111 144.144 17.9415C144.145 17.8888 144.15 17.8362 144.159 17.7843C144.162 17.771 144.165 17.7569 144.167 17.7437C144.347 17.6584 144.535 17.5895 144.727 17.5379C144.836 17.5087 144.946 17.4849 145.057 17.4663C145.437 19.5367 145.818 21.6072 146.2 23.6776C146.208 23.7262 146.218 23.7748 146.227 23.8242C146.281 24.121 146.337 24.4178 146.398 24.7137C146.454 24.9822 146.513 25.2499 146.58 25.5158L146.583 25.5237C146.606 25.6138 146.629 25.703 146.654 25.7922L146.655 25.7949C146.722 26.0387 146.798 26.2807 146.883 26.5192C147.4 27.9563 148.3 29.4031 147.969 30.895Z" fill="#27AE60"/>
<path d="M169.007 53.0523C168.991 53.356 169.05 53.6591 169.178 53.9346C169.502 54.5307 170.281 54.6662 170.954 54.722C174.889 55.0471 178.848 54.9259 182.756 54.3605C182.968 54.3459 183.174 54.2817 183.357 54.1731C183.912 53.7814 183.57 52.827 182.963 52.5215C182.357 52.2159 181.637 52.2896 180.971 52.1573C180.309 51.9899 179.68 51.7153 179.106 51.3443C177.756 50.5645 176.426 49.7516 175.115 48.9054C174.335 48.4017 173.414 47.864 172.535 48.1627C170.155 48.9723 168.992 50.4707 169.007 53.0523Z" fill="#3F3D56"/>
<path d="M140 23.2959V23.2968C139.994 23.3339 139.988 23.3701 139.98 23.4063C139.97 23.4664 139.959 23.5274 139.947 23.5874C139.838 24.1483 139.705 24.7065 139.551 25.2612C139.129 26.7937 138.564 28.3015 138.004 29.7872C136.5 33.7709 134.995 37.7548 133.49 41.7391C133.111 42.7425 132.732 43.7468 132.301 44.7299C132.157 45.0576 132.008 45.3879 131.861 45.7218C131.332 46.9169 130.824 48.1509 130.655 49.4228C130.498 50.2599 130.48 51.1175 130.601 51.9605C130.77 52.7943 131.274 53.6087 132.062 53.917C132.447 54.0681 132.997 54.2703 132.892 54.6722C132.835 54.893 132.585 55.0008 132.361 55.0379C132.065 55.0853 131.763 55.0667 131.475 54.9833C131.187 54.9 130.921 54.754 130.695 54.5556C130.275 54.1802 129.951 53.5964 129.392 53.5337C129.004 53.4913 128.647 53.7245 128.292 53.8879C126.844 54.553 125.157 54.0875 123.637 53.6149C123.756 52.9957 124.375 52.5877 124.989 52.464C125.603 52.3395 126.238 52.4278 126.865 52.411C127.065 52.4218 127.264 52.3703 127.435 52.2635C127.588 52.1224 127.695 51.9384 127.742 51.7353C128.146 50.5332 128.446 49.2986 128.639 48.0449C128.842 46.735 128.926 45.4047 129.214 44.1107C129.438 43.1011 129.784 42.1233 130.081 41.1322C130.656 39.0917 131.127 37.0234 131.494 34.9351C131.68 34.0675 131.813 33.1893 131.892 32.3055C131.942 31.5724 131.919 30.8357 131.989 30.1052C132.107 29.1549 132.304 28.2161 132.578 27.299C132.847 26.2982 133.116 25.2981 133.384 24.2985C133.782 22.8189 134.209 21.282 135.218 20.132C135.568 19.7271 135.997 19.3989 136.479 19.1676C136.961 18.9364 137.485 18.807 138.018 18.7876C138.218 18.7874 138.417 18.809 138.613 18.8521C138.645 18.86 138.678 18.868 138.71 18.8768C138.923 18.9328 139.127 19.0178 139.317 19.1294C139.628 18.9307 139.787 19.0005 139.993 19.307C140.174 19.6313 140.259 20.0009 140.239 20.3722C140.257 21.3524 140.176 22.3318 140 23.2959Z" fill="#FBBEBE"/>
<path d="M140.342 24.4672L140.329 24.4804L140.258 24.552L139.551 25.2612L139.205 23.7994L138.018 18.7876C138.218 18.7873 138.417 18.809 138.613 18.8521C138.621 18.7946 138.635 18.7382 138.654 18.6833L138.71 18.8768L139.113 20.253L139.874 22.8657L140 23.2959V23.2968L140.342 24.4672Z" fill="#27AE60"/>
<path d="M144.825 8.47828C144.824 8.94235 144.732 9.40176 144.555 9.83023C144.378 10.2587 144.118 10.6479 143.791 10.9754C143.673 11.0947 143.546 11.205 143.412 11.3057C142.805 11.7651 142.067 12.0139 141.307 12.0142H137.092C136.161 12.0128 135.268 11.6398 134.61 10.9771C133.952 10.3145 133.582 9.41639 133.582 8.48C133.582 7.54362 133.952 6.64551 134.61 5.98287C135.268 5.32024 136.161 4.94725 137.092 4.9458H141.307C142.239 4.94824 143.132 5.32108 143.791 5.98293C144.449 6.64477 144.821 7.54185 144.825 8.47828Z" fill="#2F2E41"/>
<path d="M148.777 8.74447C150.766 8.74447 152.379 7.12307 152.379 5.12297C152.379 3.12287 150.766 1.50146 148.777 1.50146C146.787 1.50146 145.174 3.12287 145.174 5.12297C145.174 7.12307 146.787 8.74447 148.777 8.74447Z" fill="#2F2E41"/>
<path opacity="0.1" d="M148.689 1.50146C148.645 1.50146 148.601 1.50323 148.557 1.50481C149.489 1.53887 150.371 1.93498 151.019 2.60979C151.666 3.28461 152.028 4.18551 152.028 5.12297C152.028 6.06042 151.666 6.96133 151.019 7.63614C150.371 8.31095 149.489 8.70706 148.557 8.74112C148.601 8.7427 148.645 8.74447 148.689 8.74447C149.644 8.74447 150.56 8.36291 151.236 7.68375C151.912 7.00459 152.291 6.08345 152.291 5.12297C152.291 4.16249 151.912 3.24134 151.236 2.56218C150.56 1.88302 149.644 1.50146 148.689 1.50146Z" fill="black"/>
<path opacity="0.1" d="M131.556 1.50146C131.6 1.50146 131.644 1.50323 131.687 1.50481C130.756 1.53887 129.873 1.93498 129.226 2.60979C128.579 3.28461 128.217 4.18551 128.217 5.12297C128.217 6.06042 128.579 6.96133 129.226 7.63614C129.873 8.31095 130.756 8.70706 131.687 8.74112C131.644 8.7427 131.6 8.74447 131.556 8.74447C130.601 8.74362 129.685 8.3617 129.01 7.68262C128.336 7.00355 127.956 6.0829 127.956 5.12297C127.956 4.16304 128.336 3.24238 129.01 2.56331C129.685 1.88423 130.601 1.50231 131.556 1.50146Z" fill="black"/>
<path opacity="0.1" d="M143.411 11.3057C142.805 11.7652 142.067 12.0139 141.307 12.0142H137.092C136.333 12.0139 135.594 11.7652 134.988 11.3057H143.411Z" fill="black"/>
<path d="M170.632 37.5467C170.632 37.5467 171.54 40.1774 172.371 39.477L171.709 36.0383L170.632 37.5467Z" fill="#FBBEBE"/>
<path d="M281.144 117.772C281.99 118.081 282.896 118.189 283.79 118.086C284.684 117.983 285.542 117.673 286.297 117.18C287.052 116.687 287.682 116.024 288.138 115.244C288.595 114.465 288.865 113.589 288.927 112.686C288.99 111.784 288.843 110.879 288.498 110.043C288.153 109.207 287.62 108.463 286.94 107.87C286.26 107.277 285.453 106.851 284.582 106.624C283.71 106.398 282.798 106.379 281.918 106.568L282.064 109.575L280.648 106.998C279.26 107.654 278.187 108.837 277.665 110.288C277.48 110.797 277.368 111.329 277.331 111.869C277.242 113.136 277.566 114.397 278.254 115.463C278.942 116.528 279.957 117.339 281.144 117.772Z" fill="#57B894"/>
<path d="M288.147 152.649C287.647 150.091 289.812 147.824 291.95 146.351C294.088 144.877 296.586 143.429 297.316 140.928C298.365 137.334 295.241 134.042 292.81 131.204C291.007 129.097 289.458 126.783 288.197 124.31C287.691 123.319 287.226 122.282 287.093 121.176C286.901 119.583 287.411 117.997 287.923 116.478C289.632 111.415 291.459 106.395 293.404 101.417" stroke="#3F3D56" stroke-miterlimit="10"/>
<path d="M281.384 116.998C282.229 117.307 283.135 117.415 284.029 117.312C284.924 117.209 285.782 116.899 286.536 116.406C287.291 115.913 287.921 115.25 288.378 114.47C288.834 113.69 289.104 112.815 289.167 111.912C289.229 111.009 289.082 110.105 288.737 109.269C288.392 108.433 287.859 107.689 287.179 107.096C286.5 106.503 285.692 106.076 284.821 105.85C283.95 105.624 283.038 105.605 282.157 105.793L282.303 108.8L280.888 106.223C279.499 106.879 278.426 108.063 277.905 109.514C277.719 110.022 277.607 110.554 277.57 111.094C277.481 112.361 277.805 113.623 278.493 114.689C279.181 115.754 280.196 116.565 281.384 116.998V116.998Z" stroke="#3F3D56" stroke-miterlimit="10"/>
<path d="M287.436 100.379C287.768 99.4581 288.325 98.6362 289.056 97.9887C289.787 97.3413 290.669 96.8892 291.619 96.6742L292.098 99.5329L292.985 96.5305C294.216 96.5489 295.411 96.9603 296.394 97.7053C297.378 98.4504 298.101 99.4905 298.459 100.676C298.817 101.861 298.79 103.129 298.384 104.298C297.978 105.467 297.212 106.476 296.198 107.18C295.185 107.883 293.975 108.244 292.743 108.211C291.512 108.178 290.323 107.752 289.348 106.995C288.373 106.239 287.662 105.19 287.318 104.001C286.975 102.811 287.016 101.543 287.436 100.379H287.436Z" fill="#57B894"/>
<path d="M287.755 99.3467C288.087 98.4259 288.644 97.6039 289.375 96.9565C290.106 96.3091 290.988 95.857 291.938 95.642L292.417 98.5007L293.304 95.4983C294.535 95.5167 295.729 95.9281 296.713 96.6731C297.697 97.4181 298.42 98.4583 298.778 99.6433C299.136 100.828 299.109 102.097 298.703 103.266C298.297 104.435 297.531 105.444 296.517 106.147C295.504 106.851 294.293 107.212 293.062 107.179C291.831 107.146 290.642 106.72 289.667 105.963C288.692 105.206 287.981 104.158 287.637 102.968C287.294 101.779 287.335 100.511 287.755 99.3467H287.755Z" stroke="#3F3D56" stroke-miterlimit="10"/>
<path d="M291.79 131.262C293.132 131.751 294.605 131.727 295.93 131.194C297.255 130.661 298.339 129.657 298.974 128.372C299.61 127.088 299.753 125.613 299.377 124.229C299 122.846 298.131 121.649 296.934 120.869L296.252 123.176L295.769 120.284C295.764 120.281 295.759 120.28 295.754 120.278C295.036 120.016 294.274 119.899 293.512 119.932C292.749 119.966 292.001 120.151 291.309 120.476C290.617 120.801 289.996 121.26 289.481 121.826C288.966 122.392 288.566 123.055 288.306 123.776C288.046 124.498 287.929 125.264 287.964 126.031C287.998 126.797 288.182 127.55 288.506 128.245C288.829 128.94 289.286 129.564 289.849 130.082C290.413 130.599 291.073 131 291.79 131.262H291.79Z" fill="#57B894"/>
<path d="M292.067 130.216C293.408 130.705 294.882 130.681 296.207 130.148C297.532 129.615 298.615 128.611 299.251 127.326C299.886 126.042 300.03 124.567 299.653 123.184C299.277 121.8 298.407 120.604 297.21 119.823L296.528 122.13L296.045 119.238C296.04 119.236 296.035 119.234 296.03 119.232C295.313 118.97 294.551 118.853 293.788 118.887C293.025 118.921 292.277 119.105 291.585 119.43C290.894 119.755 290.272 120.214 289.757 120.78C289.242 121.347 288.843 122.009 288.582 122.731C288.322 123.452 288.206 124.218 288.24 124.985C288.274 125.752 288.458 126.504 288.782 127.199C289.106 127.894 289.562 128.518 290.126 129.036C290.689 129.554 291.349 129.955 292.067 130.216H292.067Z" stroke="#3F3D56" stroke-miterlimit="10"/>
<path d="M285.74 140.964C285.971 142.283 286.646 143.483 287.652 144.361C288.658 145.24 289.934 145.744 291.266 145.789C292.597 145.834 293.904 145.417 294.967 144.609C296.029 143.8 296.783 142.649 297.101 141.348C297.419 140.048 297.283 138.676 296.715 137.465C296.147 136.253 295.182 135.274 293.982 134.693C292.781 134.111 291.418 133.962 290.122 134.271C288.825 134.58 287.674 135.328 286.86 136.389L289.449 140.307L285.912 138.227C285.637 139.113 285.579 140.051 285.74 140.964Z" fill="#57B894"/>
<path d="M285.98 140.189C286.21 141.509 286.885 142.708 287.891 143.587C288.897 144.465 290.173 144.97 291.505 145.015C292.837 145.06 294.143 144.643 295.206 143.835C296.268 143.026 297.022 141.875 297.34 140.574C297.659 139.273 297.522 137.902 296.955 136.69C296.387 135.478 295.421 134.5 294.221 133.918C293.02 133.337 291.658 133.188 290.361 133.497C289.064 133.806 287.913 134.553 287.099 135.615L289.689 139.532L286.151 137.453C285.877 138.338 285.818 139.277 285.98 140.189V140.189Z" stroke="#3F3D56" stroke-miterlimit="10"/>
<path d="M2.51505 132.004C3.07079 132.207 3.66587 132.278 4.25337 132.21C4.84088 132.143 5.40475 131.939 5.90054 131.615C6.39633 131.291 6.8105 130.856 7.11039 130.343C7.41028 129.831 7.58769 129.256 7.62866 128.663C7.66962 128.069 7.573 127.475 7.34643 126.926C7.11986 126.377 6.76952 125.888 6.32302 125.498C5.87653 125.109 5.34609 124.828 4.77351 124.68C4.20093 124.531 3.60186 124.519 3.02352 124.642L3.11909 126.618L2.1893 124.925C1.27676 125.356 0.57179 126.134 0.229301 127.087C0.107669 127.421 0.0337259 127.771 0.00967741 128.125C-0.0490115 128.958 0.163818 129.787 0.615914 130.487C1.06801 131.187 1.73473 131.719 2.51505 132.004Z" fill="#57B894"/>
<path d="M7.11578 154.918C6.78756 153.238 8.2098 151.749 9.61463 150.78C11.0195 149.812 12.6609 148.861 13.1403 147.218C13.8292 144.856 11.7772 142.694 10.1801 140.829C8.99516 139.445 7.9776 137.924 7.14869 136.3C6.78832 135.661 6.54286 134.964 6.42363 134.24C6.29769 133.193 6.63221 132.152 6.96921 131.153C8.09188 127.827 9.29221 124.529 10.5702 121.259" stroke="#3F3D56" stroke-miterlimit="10"/>
<path d="M2.67326 131.495C3.229 131.698 3.82408 131.769 4.41158 131.701C4.99908 131.634 5.56295 131.43 6.05874 131.106C6.55453 130.782 6.96869 130.347 7.26858 129.834C7.56847 129.322 7.74589 128.747 7.78685 128.154C7.82781 127.561 7.7312 126.966 7.50463 126.417C7.27805 125.868 6.92771 125.379 6.48122 124.989C6.03473 124.6 5.50429 124.32 4.93171 124.171C4.35913 124.023 3.76006 124.01 3.18173 124.134L3.2773 126.109L2.34751 124.416C1.43497 124.847 0.729993 125.625 0.387505 126.578C0.265874 126.912 0.191932 127.262 0.167882 127.617C0.109189 128.449 0.322017 129.278 0.774114 129.978C1.22621 130.678 1.89293 131.211 2.67326 131.495V131.495Z" stroke="#3F3D56" stroke-miterlimit="10"/>
<path d="M6.64912 120.576C6.86722 119.971 7.23326 119.431 7.71353 119.006C8.1938 118.581 8.77285 118.284 9.3973 118.142L9.71168 120.02L10.2945 118.048C11.1038 118.06 11.8883 118.33 12.5348 118.82C13.1813 119.309 13.6563 119.993 13.8912 120.771C14.1262 121.55 14.109 122.383 13.842 123.151C13.575 123.92 13.0722 124.582 12.406 125.045C11.7398 125.507 10.9448 125.744 10.1358 125.722C9.3267 125.7 8.54546 125.421 7.90484 124.923C7.26421 124.426 6.79734 123.737 6.57163 122.956C6.34592 122.174 6.37306 121.341 6.64912 120.576Z" fill="#57B894"/>
<path d="M6.85871 119.898C7.07681 119.293 7.44286 118.753 7.92313 118.328C8.4034 117.902 8.98244 117.605 9.6069 117.464L9.92127 119.342L10.5041 117.37C11.3134 117.382 12.0979 117.652 12.7444 118.141C13.3908 118.631 13.8659 119.314 14.1008 120.093C14.3358 120.872 14.3185 121.705 14.0516 122.473C13.7846 123.241 13.2817 123.904 12.6156 124.366C11.9494 124.828 11.1544 125.066 10.3453 125.044C9.53629 125.022 8.75506 124.742 8.11443 124.245C7.4738 123.748 7.00693 123.059 6.78122 122.278C6.55552 121.496 6.58265 120.663 6.85871 119.898V119.898Z" stroke="#3F3D56" stroke-miterlimit="10"/>
<path d="M9.50985 140.867C10.3912 141.188 11.3594 141.172 12.2299 140.822C13.1003 140.472 13.8122 139.812 14.2298 138.968C14.6474 138.125 14.7416 137.156 14.4943 136.247C14.247 135.337 13.6756 134.552 12.889 134.039L12.4411 135.555L12.1235 133.654C12.1204 133.653 12.1171 133.652 12.1138 133.651C11.6424 133.478 11.1418 133.401 10.6407 133.423C10.1395 133.445 9.64764 133.567 9.19315 133.78C8.73866 133.994 8.33047 134.295 7.9919 134.667C7.65332 135.039 7.39101 135.475 7.21994 135.949C7.04888 136.423 6.97242 136.926 6.99494 137.43C7.01745 137.934 7.1385 138.428 7.35116 138.885C7.56382 139.342 7.86392 139.752 8.23432 140.092C8.60472 140.432 9.03816 140.695 9.50985 140.867Z" fill="#57B894"/>
<path d="M9.69152 140.18C10.5729 140.501 11.5411 140.485 12.4115 140.135C13.282 139.785 13.9939 139.125 14.4115 138.281C14.8291 137.438 14.9232 136.469 14.6759 135.56C14.4287 134.65 13.8573 133.864 13.0706 133.352L12.6228 134.868L12.3052 132.967C12.3021 132.966 12.2988 132.964 12.2955 132.963C11.8242 132.792 11.3238 132.715 10.8229 132.737C10.322 132.76 9.83044 132.881 9.37626 133.095C8.459 133.526 7.7497 134.306 7.4044 135.263C7.05909 136.22 7.10606 137.275 7.53498 138.197C7.9639 139.12 8.73963 139.833 9.69152 140.18V140.18Z" stroke="#3F3D56" stroke-miterlimit="10"/>
<path d="M5.53485 147.241C5.68639 148.108 6.12982 148.896 6.79076 149.473C7.45171 150.051 8.28997 150.382 9.16498 150.411C10.04 150.441 10.8985 150.167 11.5966 149.636C12.2947 149.105 12.7898 148.349 12.999 147.494C13.2082 146.639 13.1188 145.738 12.7456 144.942C12.3725 144.146 11.7383 143.503 10.9496 143.121C10.1608 142.739 9.26543 142.641 8.41352 142.844C7.56161 143.047 6.80501 143.538 6.27062 144.235L7.97176 146.81L5.64736 145.443C5.46714 146.025 5.42855 146.642 5.53485 147.241Z" fill="#57B894"/>
<path d="M5.69208 146.733C5.84362 147.6 6.28704 148.388 6.94799 148.965C7.60893 149.542 8.4472 149.873 9.3222 149.903C10.1972 149.933 11.0557 149.659 11.7538 149.128C12.4519 148.596 12.947 147.84 13.1562 146.985C13.3654 146.131 13.276 145.23 12.9028 144.434C12.5297 143.637 11.8956 142.994 11.1068 142.612C10.3181 142.23 9.42265 142.133 8.57074 142.336C7.71883 142.538 6.96224 143.03 6.42784 143.727L8.12898 146.301L5.80458 144.935C5.62436 145.516 5.58578 146.133 5.69208 146.733V146.733Z" stroke="#3F3D56" stroke-miterlimit="10"/>
<path d="M134.294 95.7548C136.915 95.7548 139.04 92.9899 139.04 89.5792C139.04 86.1685 136.915 83.4036 134.294 83.4036C131.672 83.4036 129.547 86.1685 129.547 89.5792C129.547 92.9899 131.672 95.7548 134.294 95.7548Z" fill="#2F2E41"/>
<path d="M160.122 95.8952C162.744 95.8952 164.869 93.1303 164.869 89.7196C164.869 86.3089 162.744 83.5439 160.122 83.5439C157.5 83.5439 155.375 86.3089 155.375 89.7196C155.375 93.1303 157.5 95.8952 160.122 95.8952Z" fill="#2F2E41"/>
<path d="M156.492 107.966C156.492 110.756 152.616 113.019 147.836 113.019C143.056 113.019 139.18 110.756 139.18 107.966C139.18 105.549 142.087 103.528 145.971 103.034C146.589 102.952 147.212 102.911 147.836 102.913C148.881 102.91 149.923 103.023 150.944 103.25C154.188 103.977 156.492 105.815 156.492 107.966Z" fill="#2F2E41"/>
<path d="M135.41 94.3513C138.032 94.3513 140.157 91.5863 140.157 88.1756C140.157 84.7649 138.032 82 135.41 82C132.789 82 130.663 84.7649 130.663 88.1756C130.663 91.5863 132.789 94.3513 135.41 94.3513Z" stroke="#3F3D56" stroke-miterlimit="10"/>
<path d="M161.239 94.4917C163.861 94.4917 165.986 91.7267 165.986 88.316C165.986 84.9053 163.861 82.1404 161.239 82.1404C158.617 82.1404 156.492 84.9053 156.492 88.316C156.492 91.7267 158.617 94.4917 161.239 94.4917Z" stroke="#3F3D56" stroke-miterlimit="10"/>
<path d="M148.953 111.615C153.734 111.615 157.609 109.353 157.609 106.562C157.609 103.772 153.734 101.51 148.953 101.51C144.172 101.51 140.297 103.772 140.297 106.562C140.297 109.353 144.172 111.615 148.953 111.615Z" stroke="#3F3D56" stroke-miterlimit="10"/>
<path d="M151.047 103.671C151.049 104.024 150.917 104.364 150.678 104.623C150.566 104.747 150.428 104.846 150.276 104.914C150.123 104.982 149.958 105.017 149.791 105.018H146.998C146.654 105.006 146.329 104.858 146.093 104.605C145.858 104.353 145.732 104.017 145.742 103.671C145.74 103.397 145.82 103.129 145.971 102.901C146.589 102.814 147.212 102.771 147.836 102.773C148.882 102.769 149.925 102.89 150.944 103.132C151.013 103.303 151.048 103.486 151.047 103.671Z" fill="white"/>
<path d="M135.41 87.895C136.181 87.895 136.806 87.2666 136.806 86.4914C136.806 85.7163 136.181 85.0879 135.41 85.0879C134.639 85.0879 134.014 85.7163 134.014 86.4914C134.014 87.2666 134.639 87.895 135.41 87.895Z" fill="white"/>
<path d="M161.379 87.895C162.15 87.895 162.775 87.2666 162.775 86.4914C162.775 85.7163 162.15 85.0879 161.379 85.0879C160.607 85.0879 159.982 85.7163 159.982 86.4914C159.982 87.2666 160.607 87.895 161.379 87.895Z" fill="white"/>
<path opacity="0.3" d="M162.775 101.088C163.546 101.088 164.171 100.46 164.171 99.6848C164.171 98.9096 163.546 98.2812 162.775 98.2812C162.004 98.2812 161.379 98.9096 161.379 99.6848C161.379 100.46 162.004 101.088 162.775 101.088Z" fill="#27AE60"/>
<path opacity="0.3" d="M128.709 101.088C129.48 101.088 130.105 100.46 130.105 99.6848C130.105 98.9096 129.48 98.2812 128.709 98.2812C127.938 98.2812 127.313 98.9096 127.313 99.6848C127.313 100.46 127.938 101.088 128.709 101.088Z" fill="#27AE60"/>
</g>
<defs>
<clipPath id="clip0">
<rect width="300" height="164" fill="white"/>
</clipPath>
</defs>
</svg>
