<svg width="78" height="28" viewBox="0 0 78 28" fill="none" xmlns="http://www.w3.org/2000/svg">
<path d="M5.22637 1.04688H7.27715V7.9375C7.27715 8.57096 7.13587 9.13151 6.85332 9.61914C6.57533 10.1022 6.18112 10.4759 5.6707 10.7402C5.16029 11.0046 4.58379 11.1367 3.94121 11.1367C2.88848 11.1367 2.06816 10.8701 1.48027 10.3369C0.892384 9.79915 0.598438 9.04036 0.598438 8.06055H2.66289C2.66289 8.54818 2.76543 8.9082 2.97051 9.14062C3.17559 9.37305 3.49915 9.48926 3.94121 9.48926C4.33314 9.48926 4.64531 9.35482 4.87774 9.08594C5.11016 8.81706 5.22637 8.43424 5.22637 7.9375V1.04688ZM17.5475 7.68457C17.47 8.75553 17.0735 9.59863 16.358 10.2139C15.6471 10.8291 14.7083 11.1367 13.5416 11.1367C12.2656 11.1367 11.2607 10.7083 10.527 9.85156C9.79779 8.99023 9.4332 7.8099 9.4332 6.31055V5.70215C9.4332 4.74512 9.60182 3.90202 9.93906 3.17285C10.2763 2.44368 10.7571 1.88542 11.3814 1.49805C12.0104 1.10612 12.7395 0.910156 13.5689 0.910156C14.7174 0.910156 15.6425 1.21777 16.3443 1.83301C17.0462 2.44824 17.4518 3.31185 17.5611 4.42383H15.5104C15.4602 3.78125 15.2802 3.31641 14.9703 3.0293C14.665 2.73763 14.1979 2.5918 13.5689 2.5918C12.8854 2.5918 12.3727 2.83789 12.0309 3.33008C11.6936 3.81771 11.5204 4.5765 11.5113 5.60645V6.3584C11.5113 7.43392 11.6731 8.22005 11.9967 8.7168C12.3248 9.21354 12.8398 9.46191 13.5416 9.46191C14.1751 9.46191 14.6467 9.31836 14.9566 9.03125C15.2711 8.73958 15.4511 8.29069 15.4967 7.68457H17.5475ZM23.3061 7.53418H19.4574V5.94141H23.3061V7.53418ZM25.7219 11V1.04688H28.7844C29.6594 1.04688 30.441 1.24512 31.1291 1.6416C31.8218 2.03353 32.3619 2.59408 32.7492 3.32324C33.1366 4.04785 33.3303 4.87272 33.3303 5.79785V6.25586C33.3303 7.18099 33.1389 8.00358 32.7561 8.72363C32.3778 9.44368 31.8423 10.002 31.1496 10.3984C30.4569 10.7949 29.6753 10.9954 28.8049 11H25.7219ZM27.7727 2.70801V9.35254H28.7639C29.566 9.35254 30.1789 9.09049 30.6027 8.56641C31.0266 8.04232 31.243 7.29264 31.2521 6.31738V5.79102C31.2521 4.7793 31.0425 4.01367 30.6232 3.49414C30.204 2.97005 29.591 2.70801 28.7844 2.70801H27.7727ZM35.0898 7.2334C35.0898 6.49967 35.2311 5.8457 35.5137 5.27148C35.7962 4.69727 36.2018 4.25293 36.7305 3.93848C37.2637 3.62402 37.8812 3.4668 38.583 3.4668C39.5811 3.4668 40.3945 3.77214 41.0234 4.38281C41.6569 4.99349 42.0101 5.82292 42.083 6.87109L42.0967 7.37695C42.0967 8.51172 41.7799 9.42318 41.1465 10.1113C40.513 10.7949 39.6631 11.1367 38.5967 11.1367C37.5303 11.1367 36.6781 10.7949 36.04 10.1113C35.4066 9.42773 35.0898 8.49805 35.0898 7.32227V7.2334ZM37.0654 7.37695C37.0654 8.07878 37.1976 8.61654 37.4619 8.99023C37.7262 9.35938 38.1045 9.54395 38.5967 9.54395C39.0752 9.54395 39.4489 9.36165 39.7178 8.99707C39.9867 8.62793 40.1211 8.04004 40.1211 7.2334C40.1211 6.54525 39.9867 6.01204 39.7178 5.63379C39.4489 5.25553 39.0706 5.06641 38.583 5.06641C38.0999 5.06641 37.7262 5.25553 37.4619 5.63379C37.1976 6.00749 37.0654 6.58854 37.0654 7.37695ZM45.866 3.60352L45.9275 4.43066C46.4516 3.78809 47.1603 3.4668 48.0535 3.4668C49.006 3.4668 49.66 3.84277 50.0154 4.59473C50.535 3.84277 51.2755 3.4668 52.2371 3.4668C53.0392 3.4668 53.6362 3.7015 54.0281 4.1709C54.4201 4.63574 54.616 5.33757 54.616 6.27637V11H52.6336V6.2832C52.6336 5.86393 52.5516 5.55859 52.3875 5.36719C52.2234 5.17122 51.9341 5.07324 51.5193 5.07324C50.9269 5.07324 50.5167 5.35579 50.2889 5.9209L50.2957 11H48.3201V6.29004C48.3201 5.86165 48.2358 5.55176 48.0672 5.36035C47.8986 5.16895 47.6115 5.07324 47.2059 5.07324C46.6453 5.07324 46.2397 5.30566 45.9891 5.77051V11H44.0135V3.60352H45.866ZM63.4986 7.37012C63.4986 8.50944 63.2389 9.42318 62.7193 10.1113C62.2044 10.7949 61.5071 11.1367 60.6275 11.1367C59.8801 11.1367 59.2763 10.877 58.816 10.3574V13.8438H56.8404V3.60352H58.6725L58.7408 4.32812C59.2193 3.75391 59.8437 3.4668 60.6139 3.4668C61.5253 3.4668 62.234 3.80404 62.7398 4.47852C63.2457 5.15299 63.4986 6.08268 63.4986 7.26758V7.37012ZM61.523 7.22656C61.523 6.53841 61.4 6.00749 61.1539 5.63379C60.9124 5.26009 60.5592 5.07324 60.0943 5.07324C59.4745 5.07324 59.0484 5.31022 58.816 5.78418V8.8125C59.0576 9.30013 59.4882 9.54395 60.108 9.54395C61.0514 9.54395 61.523 8.77148 61.523 7.22656ZM68.8334 11.1367C67.7488 11.1367 66.8647 10.804 66.1811 10.1387C65.502 9.47331 65.1625 8.58691 65.1625 7.47949V7.28809C65.1625 6.54525 65.3061 5.88216 65.5932 5.29883C65.8803 4.71094 66.2859 4.25977 66.81 3.94531C67.3386 3.6263 67.9402 3.4668 68.6147 3.4668C69.6264 3.4668 70.4216 3.78581 71.0004 4.42383C71.5837 5.06185 71.8754 5.96647 71.8754 7.1377V7.94434H67.1654C67.2292 8.42741 67.4206 8.81478 67.7397 9.10645C68.0632 9.39811 68.4711 9.54395 68.9633 9.54395C69.7244 9.54395 70.3191 9.26823 70.7475 8.7168L71.7182 9.80371C71.4219 10.223 71.0209 10.5511 70.515 10.7881C70.0092 11.0205 69.4486 11.1367 68.8334 11.1367ZM68.6078 5.06641C68.2159 5.06641 67.8969 5.19857 67.6508 5.46289C67.4093 5.72721 67.2543 6.10547 67.1859 6.59766H69.934V6.44043C69.9249 6.00293 69.8064 5.66569 69.5785 5.42871C69.3507 5.18717 69.0271 5.06641 68.6078 5.06641ZM76.0686 1.78516V3.60352H77.3332V5.05273H76.0686V8.74414C76.0686 9.01758 76.121 9.21354 76.2258 9.33203C76.3306 9.45052 76.5311 9.50977 76.8273 9.50977C77.0461 9.50977 77.2398 9.49382 77.4084 9.46191V10.959C77.021 11.0775 76.6223 11.1367 76.2121 11.1367C74.8267 11.1367 74.1203 10.4372 74.093 9.03809V5.05273H73.0129V3.60352H74.093V1.78516H76.0686ZM15.7373 27V17.0469H18.7998C19.6748 17.0469 20.4564 17.2451 21.1445 17.6416C21.8372 18.0335 22.3773 18.5941 22.7646 19.3232C23.152 20.0479 23.3457 20.8727 23.3457 21.7979V22.2559C23.3457 23.181 23.1543 24.0036 22.7715 24.7236C22.3932 25.4437 21.8577 26.002 21.165 26.3984C20.4723 26.7949 19.6908 26.9954 18.8203 27H15.7373ZM17.7881 18.708V25.3525H18.7793C19.5814 25.3525 20.1943 25.0905 20.6182 24.5664C21.042 24.0423 21.2585 23.2926 21.2676 22.3174V21.791C21.2676 20.7793 21.0579 20.0137 20.6387 19.4941C20.2194 18.9701 19.6064 18.708 18.7998 18.708H17.7881ZM27.3406 20.4102C27.8647 19.7812 28.5232 19.4668 29.3162 19.4668C30.9204 19.4668 31.7339 20.3988 31.7566 22.2627V27H29.7811V22.3174C29.7811 21.8936 29.6899 21.5814 29.5076 21.3809C29.3253 21.1758 29.0223 21.0732 28.5984 21.0732C28.0197 21.0732 27.6004 21.2965 27.3406 21.7432V27H25.365V16.5H27.3406V20.4102ZM38.3766 26.248C37.8889 26.8405 37.2145 27.1367 36.3531 27.1367C35.5602 27.1367 34.954 26.9089 34.5348 26.4531C34.1201 25.9974 33.9081 25.3298 33.899 24.4502V19.6035H35.8746V24.3818C35.8746 25.152 36.2255 25.5371 36.9273 25.5371C37.5973 25.5371 38.0576 25.3047 38.3082 24.8398V19.6035H40.2906V27H38.4313L38.3766 26.248ZM46.767 27C46.6758 26.8223 46.6098 26.6012 46.5687 26.3369C46.0902 26.8701 45.4682 27.1367 44.7025 27.1367C43.9779 27.1367 43.3764 26.9271 42.8979 26.5078C42.4239 26.0885 42.1869 25.5599 42.1869 24.9219C42.1869 24.138 42.4763 23.5365 43.0551 23.1172C43.6384 22.6979 44.4792 22.486 45.5775 22.4814H46.4867V22.0576C46.4867 21.7158 46.3979 21.4424 46.2201 21.2373C46.0469 21.0322 45.7712 20.9297 45.393 20.9297C45.0603 20.9297 44.7982 21.0094 44.6068 21.1689C44.42 21.3285 44.3266 21.5472 44.3266 21.8252H42.351C42.351 21.3968 42.4831 21.0003 42.7475 20.6357C43.0118 20.2712 43.3855 19.9863 43.8686 19.7812C44.3516 19.5716 44.8939 19.4668 45.4955 19.4668C46.407 19.4668 47.1293 19.6969 47.6625 20.1572C48.2003 20.613 48.4691 21.2555 48.4691 22.085V25.291C48.4737 25.9928 48.5717 26.5238 48.7631 26.8838V27H46.767ZM45.1332 25.626C45.4249 25.626 45.6937 25.5622 45.9398 25.4346C46.1859 25.3024 46.3682 25.127 46.4867 24.9082V23.6367H45.7484C44.7595 23.6367 44.2331 23.9785 44.1693 24.6621L44.1625 24.7783C44.1625 25.0244 44.2491 25.2272 44.4223 25.3867C44.5954 25.5462 44.8324 25.626 45.1332 25.626ZM51.2268 27V21.0527H50.1262V19.6035H51.2268V18.9746C51.2268 18.1452 51.4637 17.5026 51.9377 17.0469C52.4162 16.5866 53.0839 16.3564 53.9406 16.3564C54.2141 16.3564 54.549 16.402 54.9455 16.4932L54.925 18.0244C54.7609 17.9834 54.5604 17.9629 54.3234 17.9629C53.5806 17.9629 53.2092 18.3115 53.2092 19.0088V19.6035H54.6789V21.0527H53.2092V27H51.2268ZM60.6904 27C60.5993 26.8223 60.5332 26.6012 60.4922 26.3369C60.0137 26.8701 59.3916 27.1367 58.626 27.1367C57.9014 27.1367 57.2998 26.9271 56.8213 26.5078C56.3473 26.0885 56.1104 25.5599 56.1104 24.9219C56.1104 24.138 56.3997 23.5365 56.9785 23.1172C57.5618 22.6979 58.4027 22.486 59.501 22.4814H60.4102V22.0576C60.4102 21.7158 60.3213 21.4424 60.1436 21.2373C59.9704 21.0322 59.6947 20.9297 59.3164 20.9297C58.9837 20.9297 58.7217 21.0094 58.5303 21.1689C58.3434 21.3285 58.25 21.5472 58.25 21.8252H56.2744C56.2744 21.3968 56.4066 21.0003 56.6709 20.6357C56.9352 20.2712 57.3089 19.9863 57.792 19.7812C58.2751 19.5716 58.8174 19.4668 59.4189 19.4668C60.3304 19.4668 61.0527 19.6969 61.5859 20.1572C62.1237 20.613 62.3926 21.2555 62.3926 22.085V25.291C62.3971 25.9928 62.4951 26.5238 62.6865 26.8838V27H60.6904ZM59.0566 25.626C59.3483 25.626 59.6172 25.5622 59.8633 25.4346C60.1094 25.3024 60.2917 25.127 60.4102 24.9082V23.6367H59.6719C58.6829 23.6367 58.1566 23.9785 58.0928 24.6621L58.0859 24.7783C58.0859 25.0244 58.1725 25.2272 58.3457 25.3867C58.5189 25.5462 58.7559 25.626 59.0566 25.626Z" fill="#27AE60"/>
</svg>
