<svg width="128" height="18" viewBox="0 0 128 18" fill="none" xmlns="http://www.w3.org/2000/svg">
<path d="M7.77832 10.6426C7.77832 10.1445 7.60254 9.76367 7.25098 9.5C6.89941 9.23047 6.2666 8.94922 5.35254 8.65625C4.43848 8.35742 3.71484 8.06445 3.18164 7.77734C1.72852 6.99219 1.00195 5.93457 1.00195 4.60449C1.00195 3.91309 1.19531 3.29785 1.58203 2.75879C1.97461 2.21387 2.53418 1.78906 3.26074 1.48438C3.99316 1.17969 4.81348 1.02734 5.72168 1.02734C6.63574 1.02734 7.4502 1.19434 8.16504 1.52832C8.87988 1.85645 9.43359 2.32227 9.82617 2.92578C10.2246 3.5293 10.4238 4.21484 10.4238 4.98242H7.78711C7.78711 4.39648 7.60254 3.94238 7.2334 3.62012C6.86426 3.29199 6.3457 3.12793 5.67773 3.12793C5.0332 3.12793 4.53223 3.26563 4.1748 3.54102C3.81738 3.81055 3.63867 4.16797 3.63867 4.61328C3.63867 5.0293 3.84668 5.37793 4.2627 5.65918C4.68457 5.94043 5.30273 6.2041 6.11719 6.4502C7.61719 6.90137 8.70996 7.46094 9.39551 8.12891C10.0811 8.79688 10.4238 9.62891 10.4238 10.625C10.4238 11.7324 10.0049 12.6025 9.16699 13.2354C8.3291 13.8623 7.20117 14.1758 5.7832 14.1758C4.79883 14.1758 3.90234 13.9971 3.09375 13.6396C2.28516 13.2764 1.66699 12.7812 1.23926 12.1543C0.817383 11.5273 0.606445 10.8008 0.606445 9.97461H3.25195C3.25195 11.3867 4.0957 12.0928 5.7832 12.0928C6.41016 12.0928 6.89941 11.9668 7.25098 11.7148C7.60254 11.457 7.77832 11.0996 7.77832 10.6426ZM16.4268 14.1758C15.0322 14.1758 13.8955 13.748 13.0166 12.8926C12.1436 12.0371 11.707 10.8975 11.707 9.47363V9.22754C11.707 8.27246 11.8916 7.41992 12.2607 6.66992C12.6299 5.91406 13.1514 5.33398 13.8252 4.92969C14.5049 4.51953 15.2783 4.31445 16.1455 4.31445C17.4463 4.31445 18.4688 4.72461 19.2129 5.54492C19.9629 6.36523 20.3379 7.52832 20.3379 9.03418V10.0713H14.2822C14.3643 10.6924 14.6104 11.1904 15.0205 11.5654C15.4365 11.9404 15.9609 12.1279 16.5938 12.1279C17.5723 12.1279 18.3369 11.7734 18.8877 11.0645L20.1357 12.4619C19.7549 13.001 19.2393 13.4229 18.5889 13.7275C17.9385 14.0264 17.2178 14.1758 16.4268 14.1758ZM16.1367 6.37109C15.6328 6.37109 15.2227 6.54102 14.9062 6.88086C14.5957 7.2207 14.3965 7.70703 14.3086 8.33984H17.8418V8.1377C17.8301 7.5752 17.6777 7.1416 17.3848 6.83691C17.0918 6.52637 16.6758 6.37109 16.1367 6.37109ZM24.4688 14H21.9199V0.5H24.4688V14ZM32.0801 14C31.9629 13.7715 31.8779 13.4873 31.8252 13.1475C31.21 13.833 30.4102 14.1758 29.4258 14.1758C28.4941 14.1758 27.7207 13.9062 27.1055 13.3672C26.4961 12.8281 26.1914 12.1484 26.1914 11.3281C26.1914 10.3203 26.5635 9.54688 27.3076 9.00781C28.0576 8.46875 29.1387 8.19629 30.5508 8.19043H31.7197V7.64551C31.7197 7.20605 31.6055 6.85449 31.377 6.59082C31.1543 6.32715 30.7998 6.19531 30.3135 6.19531C29.8857 6.19531 29.5488 6.29785 29.3027 6.50293C29.0625 6.70801 28.9424 6.98926 28.9424 7.34668H26.4023C26.4023 6.7959 26.5723 6.28613 26.9121 5.81738C27.252 5.34863 27.7324 4.98242 28.3535 4.71875C28.9746 4.44922 29.6719 4.31445 30.4453 4.31445C31.6172 4.31445 32.5459 4.61035 33.2314 5.20215C33.9229 5.78809 34.2686 6.61426 34.2686 7.68066V11.8027C34.2744 12.7051 34.4004 13.3877 34.6465 13.8506V14H32.0801ZM29.9795 12.2334C30.3545 12.2334 30.7002 12.1514 31.0166 11.9873C31.333 11.8174 31.5674 11.5918 31.7197 11.3105V9.67578H30.7705C29.499 9.67578 28.8223 10.1152 28.7402 10.9941L28.7314 11.1436C28.7314 11.46 28.8428 11.7207 29.0654 11.9258C29.2881 12.1309 29.5928 12.2334 29.9795 12.2334ZM38.6016 4.49023L38.6807 5.55371C39.3545 4.72754 40.2656 4.31445 41.4141 4.31445C42.6387 4.31445 43.4795 4.79785 43.9365 5.76465C44.6045 4.79785 45.5566 4.31445 46.793 4.31445C47.8242 4.31445 48.5918 4.61621 49.0957 5.21973C49.5996 5.81738 49.8516 6.71973 49.8516 7.92676V14H47.3027V7.93555C47.3027 7.39648 47.1973 7.00391 46.9863 6.75781C46.7754 6.50586 46.4033 6.37988 45.8701 6.37988C45.1084 6.37988 44.5811 6.74316 44.2881 7.46973L44.2969 14H41.7568V7.94434C41.7568 7.39355 41.6484 6.99512 41.4316 6.74902C41.2148 6.50293 40.8457 6.37988 40.3242 6.37988C39.6035 6.37988 39.082 6.67871 38.7598 7.27637V14H36.2197V4.49023H38.6016ZM57.3223 14C57.2051 13.7715 57.1201 13.4873 57.0674 13.1475C56.4521 13.833 55.6523 14.1758 54.668 14.1758C53.7363 14.1758 52.9629 13.9062 52.3477 13.3672C51.7383 12.8281 51.4336 12.1484 51.4336 11.3281C51.4336 10.3203 51.8057 9.54688 52.5498 9.00781C53.2998 8.46875 54.3809 8.19629 55.793 8.19043H56.9619V7.64551C56.9619 7.20605 56.8477 6.85449 56.6191 6.59082C56.3965 6.32715 56.042 6.19531 55.5557 6.19531C55.1279 6.19531 54.791 6.29785 54.5449 6.50293C54.3047 6.70801 54.1846 6.98926 54.1846 7.34668H51.6445C51.6445 6.7959 51.8145 6.28613 52.1543 5.81738C52.4941 5.34863 52.9746 4.98242 53.5957 4.71875C54.2168 4.44922 54.9141 4.31445 55.6875 4.31445C56.8594 4.31445 57.7881 4.61035 58.4736 5.20215C59.165 5.78809 59.5107 6.61426 59.5107 7.68066V11.8027C59.5166 12.7051 59.6426 13.3877 59.8887 13.8506V14H57.3223ZM55.2217 12.2334C55.5967 12.2334 55.9424 12.1514 56.2588 11.9873C56.5752 11.8174 56.8096 11.5918 56.9619 11.3105V9.67578H56.0127C54.7412 9.67578 54.0645 10.1152 53.9824 10.9941L53.9736 11.1436C53.9736 11.46 54.085 11.7207 54.3076 11.9258C54.5303 12.1309 54.835 12.2334 55.2217 12.2334ZM64.5029 2.15234V4.49023H66.1289V6.35352H64.5029V11.0996C64.5029 11.4512 64.5703 11.7031 64.7051 11.8555C64.8398 12.0078 65.0977 12.084 65.4785 12.084C65.7598 12.084 66.0088 12.0635 66.2256 12.0225V13.9473C65.7275 14.0996 65.2148 14.1758 64.6875 14.1758C62.9062 14.1758 61.998 13.2764 61.9629 11.4775V6.35352H60.5742V4.49023H61.9629V2.15234H64.5029ZM72.1934 14V1.20312H76.1309C77.2559 1.20312 78.2607 1.45801 79.1455 1.96777C80.0361 2.47168 80.7305 3.19238 81.2285 4.12988C81.7266 5.06152 81.9756 6.12207 81.9756 7.31152V7.90039C81.9756 9.08984 81.7295 10.1475 81.2373 11.0732C80.751 11.999 80.0625 12.7168 79.1719 13.2266C78.2812 13.7363 77.2764 13.9941 76.1572 14H72.1934ZM74.8301 3.33887V11.8818H76.1045C77.1357 11.8818 77.9238 11.5449 78.4688 10.8711C79.0137 10.1973 79.292 9.2334 79.3037 7.97949V7.30273C79.3037 6.00195 79.0342 5.01758 78.4951 4.34961C77.9561 3.67578 77.168 3.33887 76.1309 3.33887H74.8301ZM89.2441 14C89.127 13.7715 89.042 13.4873 88.9893 13.1475C88.374 13.833 87.5742 14.1758 86.5898 14.1758C85.6582 14.1758 84.8848 13.9062 84.2695 13.3672C83.6602 12.8281 83.3555 12.1484 83.3555 11.3281C83.3555 10.3203 83.7275 9.54688 84.4717 9.00781C85.2217 8.46875 86.3027 8.19629 87.7148 8.19043H88.8838V7.64551C88.8838 7.20605 88.7695 6.85449 88.541 6.59082C88.3184 6.32715 87.9639 6.19531 87.4775 6.19531C87.0498 6.19531 86.7129 6.29785 86.4668 6.50293C86.2266 6.70801 86.1064 6.98926 86.1064 7.34668H83.5664C83.5664 6.7959 83.7363 6.28613 84.0762 5.81738C84.416 5.34863 84.8965 4.98242 85.5176 4.71875C86.1387 4.44922 86.8359 4.31445 87.6094 4.31445C88.7812 4.31445 89.71 4.61035 90.3955 5.20215C91.0869 5.78809 91.4326 6.61426 91.4326 7.68066V11.8027C91.4385 12.7051 91.5645 13.3877 91.8105 13.8506V14H89.2441ZM87.1436 12.2334C87.5186 12.2334 87.8643 12.1514 88.1807 11.9873C88.4971 11.8174 88.7314 11.5918 88.8838 11.3105V9.67578H87.9346C86.6631 9.67578 85.9863 10.1152 85.9043 10.9941L85.8955 11.1436C85.8955 11.46 86.0068 11.7207 86.2295 11.9258C86.4521 12.1309 86.7568 12.2334 87.1436 12.2334ZM96.4248 2.15234V4.49023H98.0508V6.35352H96.4248V11.0996C96.4248 11.4512 96.4922 11.7031 96.627 11.8555C96.7617 12.0078 97.0195 12.084 97.4004 12.084C97.6816 12.084 97.9307 12.0635 98.1475 12.0225V13.9473C97.6494 14.0996 97.1367 14.1758 96.6094 14.1758C94.8281 14.1758 93.9199 13.2764 93.8848 11.4775V6.35352H92.4961V4.49023H93.8848V2.15234H96.4248ZM104.977 14C104.859 13.7715 104.774 13.4873 104.722 13.1475C104.106 13.833 103.307 14.1758 102.322 14.1758C101.391 14.1758 100.617 13.9062 100.002 13.3672C99.3926 12.8281 99.0879 12.1484 99.0879 11.3281C99.0879 10.3203 99.46 9.54688 100.204 9.00781C100.954 8.46875 102.035 8.19629 103.447 8.19043H104.616V7.64551C104.616 7.20605 104.502 6.85449 104.273 6.59082C104.051 6.32715 103.696 6.19531 103.21 6.19531C102.782 6.19531 102.445 6.29785 102.199 6.50293C101.959 6.70801 101.839 6.98926 101.839 7.34668H99.2988C99.2988 6.7959 99.4688 6.28613 99.8086 5.81738C100.148 5.34863 100.629 4.98242 101.25 4.71875C101.871 4.44922 102.568 4.31445 103.342 4.31445C104.514 4.31445 105.442 4.61035 106.128 5.20215C106.819 5.78809 107.165 6.61426 107.165 7.68066V11.8027C107.171 12.7051 107.297 13.3877 107.543 13.8506V14H104.977ZM102.876 12.2334C103.251 12.2334 103.597 12.1514 103.913 11.9873C104.229 11.8174 104.464 11.5918 104.616 11.3105V9.67578H103.667C102.396 9.67578 101.719 10.1152 101.637 10.9941L101.628 11.1436C101.628 11.46 101.739 11.7207 101.962 11.9258C102.185 12.1309 102.489 12.2334 102.876 12.2334ZM111.454 4.49023L111.533 5.58887C112.213 4.73926 113.124 4.31445 114.267 4.31445C115.274 4.31445 116.024 4.61035 116.517 5.20215C117.009 5.79395 117.261 6.67871 117.272 7.85645V14H114.732V7.91797C114.732 7.37891 114.615 6.98926 114.381 6.74902C114.146 6.50293 113.757 6.37988 113.212 6.37988C112.497 6.37988 111.961 6.68457 111.604 7.29395V14H109.063V4.49023H111.454ZM118.837 9.1748C118.837 7.71582 119.183 6.54102 119.874 5.65039C120.571 4.75977 121.509 4.31445 122.687 4.31445C123.729 4.31445 124.541 4.67188 125.121 5.38672L125.227 4.49023H127.529V13.6836C127.529 14.5156 127.339 15.2393 126.958 15.8545C126.583 16.4697 126.053 16.9385 125.367 17.2607C124.682 17.583 123.879 17.7441 122.959 17.7441C122.262 17.7441 121.582 17.6035 120.92 17.3223C120.258 17.0469 119.757 16.6895 119.417 16.25L120.542 14.7031C121.175 15.4121 121.942 15.7666 122.845 15.7666C123.519 15.7666 124.043 15.585 124.418 15.2217C124.793 14.8643 124.98 14.3545 124.98 13.6924V13.1826C124.395 13.8447 123.624 14.1758 122.669 14.1758C121.526 14.1758 120.601 13.7305 119.892 12.8398C119.188 11.9434 118.837 10.7568 118.837 9.28027V9.1748ZM121.377 9.35938C121.377 10.2207 121.55 10.8975 121.896 11.3896C122.241 11.876 122.716 12.1191 123.319 12.1191C124.093 12.1191 124.646 11.8291 124.98 11.249V7.25C124.641 6.66992 124.093 6.37988 123.337 6.37988C122.728 6.37988 122.247 6.62891 121.896 7.12695C121.55 7.625 121.377 8.36914 121.377 9.35938Z" fill="#27AE60"/>
</svg>
